<svg xmlns="http://www.w3.org/2000/svg" width="24" height="24"><defs><linearGradient id="a" x1="454.02" x2="454.02" y1="685.29" y2="685.1" gradientTransform="matrix(128 0 0 -128 -58102.5 87716.61)" gradientUnits="userSpaceOnUse"><stop offset="0" stop-color="#2aabee"/><stop offset="1" stop-color="#229ed9"/></linearGradient></defs><circle cx="12" cy="12" r="12" style="fill:url(#a)"/><path d="M5.43 11.87c3.5-1.52 5.83-2.53 7-3.01 3.33-1.39 4.02-1.63 4.48-1.63.1 0 .32.02.47.14.12.1.15.23.17.32.02.09.04.31.02.47-.18 1.9-.96 6.5-1.36 8.63-.17.9-.5 1.2-.82 1.23-.7.06-1.23-.46-1.9-.9-1.06-.69-1.65-1.12-2.68-1.8-1.18-.78-.42-1.21.26-1.91.18-.18 3.25-2.98 3.31-3.23 0-.03.01-.15-.06-.21-.07-.06-.17-.04-.25-.02-.11.02-1.79 1.14-5.06 3.35-.48.33-.91.49-1.3.48-.43 0-1.25-.24-1.87-.44-.75-.24-1.35-.37-1.3-.79.03-.22.32-.44.89-.66Z" style="fill:#fff"/></svg>